<?xml version="1.0" standalone="no"?>
<!DOCTYPE svg PUBLIC "-//W3C//DTD SVG 20010904//EN"
 "http://www.w3.org/TR/2001/REC-SVG-20010904/DTD/svg10.dtd">
<svg version="1.0" xmlns="http://www.w3.org/2000/svg"
 width="512.000000pt" height="512.000000pt" viewBox="0 0 512.000000 512.000000"
 preserveAspectRatio="xMidYMid meet">
<metadata>
Created by potrace 1.16, written by Peter Selinger 2001-2019
</metadata>
<g transform="translate(0.000000,512.000000) scale(0.100000,-0.100000)"
fill="#000000" stroke="none">
<path d="M2470 4943 c-252 -182 -570 -648 -737 -1078 -126 -323 -183 -618
-183 -944 l0 -159 -155 -127 c-180 -147 -229 -198 -278 -292 -48 -93 -67 -172
-67 -286 0 -81 10 -140 65 -386 127 -570 122 -555 205 -601 55 -30 138 -33
190 -7 19 9 67 45 106 80 194 171 362 318 384 335 l25 20 60 -45 c74 -56 169
-104 265 -135 62 -19 96 -23 200 -23 185 1 299 39 456 151 67 48 79 53 93 41
9 -7 122 -104 251 -214 130 -110 250 -208 267 -217 42 -21 128 -20 178 3 47
21 89 67 104 113 6 18 45 204 87 413 74 371 76 383 71 495 -6 139 -28 210 -99
316 -48 71 -94 114 -339 313 l-66 54 -1 171 c-3 476 -139 938 -412 1397 -110
185 -282 412 -391 515 -72 67 -177 144 -198 144 -9 0 -46 -21 -81 -47z m151
-1103 c131 -25 253 -118 311 -239 60 -125 47 -292 -32 -405 -91 -131 -216
-192 -375 -184 -264 14 -447 265 -380 522 20 78 54 133 120 195 101 96 227
135 356 111z"/>
<path d="M2453 3614 c-147 -73 -159 -280 -23 -370 77 -51 186 -43 257 19 106
93 95 256 -21 335 -43 28 -56 32 -115 32 -40 0 -79 -7 -98 -16z"/>
<path d="M2007 1064 c-34 -34 -42 -119 -34 -374 l7 -195 30 -28 c23 -20 40
-27 73 -27 39 0 50 6 113 64 l70 64 95 -190 c52 -104 104 -201 116 -214 17
-19 32 -24 68 -24 26 0 55 5 66 10 11 6 63 99 120 213 56 111 103 204 105 206
2 2 35 -26 73 -62 59 -58 74 -67 106 -67 51 0 91 24 104 61 17 50 15 491 -3
534 -27 64 -94 73 -200 25 -220 -100 -512 -100 -732 0 -86 39 -141 40 -177 4z"/>
</g>
</svg>

